# xmcd CD database file
#
# Track frame offsets:
#	183
#	11685
#	25835
#	40500
#	50808
#	64283
#	75218
#	84588
#	102318
#	110305
#	123643
#	137038
#	151650
#	159530
#	168620
#	180260
#	192653
#	205668
#	217543
#	230060
#
# Disc length: 3209 seconds
#
# Revision: 1
# Processed by: cddbd v1.5.2PL0 Copyright (c) Steve Scherf et al.
# Submitted via: CDex 1.79
#
DISCID=010c8714
DTITLE=Johnny Cash - One Million Dollars Cash
DYEAR=1900
DGENRE=Country
TTITLE0=Get Rhythm
TTITLE1=Tennessee Flat Top Box
TTITLE2=Long Black Veil
TTITLE3=Thing Called Love
TTITLE4=I Still Miss Someone
TTITLE5=Cry, Cry, Cry
TTITLE6=Blue Train
TTITLE7=Sunday Morning Coming Down
TTITLE8=Five Feet High And Rising
TTITLE9=Peace In The Valley
TTITLE10=Don't Take Your Guns To Town
TTITLE11=Home Of The Blues
TTITLE12=Guess Things Happen That Way
TTITLE13=I Got Stripes
TTITLE14=I Walk The Line
TTITLE15=Ring Of Fire
TTITLE16=Ballad Of Ira Hayes
TTITLE17=The Ways Of A Woman In Love
TTITLE18=Folsum Prison Blues
TTITLE19=Supper Time
EXTD=same as US-Version: Classic Cash Hall Of Fame Series,
EXTT0=
EXTT1=
EXTT2=
EXTT3=
EXTT4=
EXTT5=
EXTT6=
EXTT7=
EXTT8=
EXTT9=
EXTT10=
EXTT11=
EXTT12=
EXTT13=
EXTT14=
EXTT15=
EXTT16=
EXTT17=
EXTT18=
EXTT19=
PLAYORDER=
